<svg width="94" height="18" viewBox="0 0 94 18" fill="none" xmlns="http://www.w3.org/2000/svg">
<path d="M8.91667 1L11.3629 5.95583L16.8333 6.75542L12.875 10.6108L13.8092 16.0575L8.91667 13.4846L4.02417 16.0575L4.95833 10.6108L1 6.75542L6.47042 5.95583L8.91667 1Z" fill="#401700" stroke="#401700" stroke-width="2" stroke-linecap="round" stroke-linejoin="round"/>
<path d="M27.9167 1L30.3629 5.95583L35.8333 6.75542L31.875 10.6108L32.8092 16.0575L27.9167 13.4846L23.0242 16.0575L23.9583 10.6108L20 6.75542L25.4704 5.95583L27.9167 1Z" fill="#401700" stroke="#401700" stroke-width="2" stroke-linecap="round" stroke-linejoin="round"/>
<path d="M46.9167 1L49.3629 5.95583L54.8333 6.75542L50.875 10.6108L51.8092 16.0575L46.9167 13.4846L42.0242 16.0575L42.9583 10.6108L39 6.75542L44.4704 5.95583L46.9167 1Z" fill="#401700" stroke="#401700" stroke-width="2" stroke-linecap="round" stroke-linejoin="round"/>
<path d="M65.9167 1L68.3629 5.95583L73.8333 6.75542L69.875 10.6108L70.8092 16.0575L65.9167 13.4846L61.0242 16.0575L61.9583 10.6108L58 6.75542L63.4704 5.95583L65.9167 1Z" fill="#401700" stroke="#401700" stroke-width="2" stroke-linecap="round" stroke-linejoin="round"/>
<path d="M84.9167 1L87.3629 5.95583L92.8333 6.75542L88.875 10.6108L89.8092 16.0575L84.9167 13.4846L80.0242 16.0575L80.9583 10.6108L77 6.75542L82.4704 5.95583L84.9167 1Z" fill="#401700" stroke="#401700" stroke-width="2" stroke-linecap="round" stroke-linejoin="round"/>
</svg>
