<svg width="29" height="29" viewBox="0 0 29 29" fill="none" xmlns="http://www.w3.org/2000/svg">
<circle cx="14.5" cy="14.5" r="14.5" fill="white"/>
<path d="M19.95 10.05H19.959" stroke="#1C0A00" stroke-width="2" stroke-linecap="round" stroke-linejoin="round"/>
<path d="M18.5999 14.433C18.711 15.182 18.583 15.947 18.2343 16.6191C17.8855 17.2913 17.3337 17.8363 16.6574 18.1767C15.981 18.5172 15.2145 18.6357 14.4669 18.5154C13.7193 18.3951 13.0287 18.0421 12.4933 17.5067C11.9578 16.9712 11.6049 16.2806 11.4846 15.533C11.3643 14.7854 11.4828 14.0189 11.8232 13.3426C12.1636 12.6662 12.7087 12.1144 13.3808 11.7656C14.0529 11.4169 14.8179 11.289 15.5669 11.4C16.3309 11.5133 17.0383 11.8693 17.5844 12.4155C18.1306 12.9617 18.4866 13.669 18.5999 14.433Z" stroke="#1C0A00" stroke-width="2" stroke-linecap="round" stroke-linejoin="round"/>
<path d="M19.5 6H10.5C8.01472 6 6 8.01472 6 10.5V19.5C6 21.9853 8.01472 24 10.5 24H19.5C21.9853 24 24 21.9853 24 19.5V10.5C24 8.01472 21.9853 6 19.5 6Z" stroke="#1C0A00" stroke-width="2" stroke-linecap="round" stroke-linejoin="round"/>
</svg>
